<svg xmlns="http://www.w3.org/2000/svg" version="1.1" xml:lang="fr" xmlns:xlink="http://www.w3/org/1999/xlink" class="graph" width="100%" height="100%" viewBox="0 0 709.09090909091 500" preserveAspectRatio="xMidYMid meet">  <defs>     <style type="text/css"><![CDATA[        .draw { width:70%;/*Adjust this value to resize svg automatically*/ margin:auto; } svg {/*width and height of svg is 100% of dimension of its parent (draw class here)*/ display: block; margin:auto; margin-bottom: 50px; } .graph-title { stroke-width:4; stroke:transparent; fill:#000033; font-size: 1.2em; } .graph-grid { stroke-width:1; stroke:#c4c4c4; } .graph-stroke { stroke-width:2; stroke:#424242; } .graph-legends {} .graph-legend {} .graph-legend-stroke {} .graph-line { stroke-linejoin:round; stroke-width:2; } .graph-fill { stroke-width:0; } .graph-bar {} .graph-point { stroke-width:1; fill:#fff; fill-opacity:1; stroke-opacity:1; } .graph-point-active:hover { stroke-width:5; transition-duration:.9s; cursor: pointer; }  title.graph-tooltip { background-color:#d6d6d6; } .graph-pie { cursor: pointer; stroke-width:1; stroke:#fff; } text { fill:#000; }      ]]></style> </defs> <rect x="50" y="50" width="600" height="300" class="graph-stroke" fill="#ffffff" fill-opacity="1"/> <title class="graph-tooltip">Comparatif du chiffre d'affaire de N-1 - N</title> <text x="350" y="40" text-anchor="middle" class="graph-title">Comparatif du chiffre d'affaire de N-1 - N</text> <g class="graph-grid"> <path d="M 50 350 H 650"/> <path d="M 50 307.35547058238 H 650"/> <path d="M 50 264.71094116476 H 650"/> <path d="M 50 222.06641174715 H 650"/> <path d="M 50 179.42188232953 H 650"/> <path d="M 50 136.77735291191 H 650"/> <path d="M 50 94.132823494293 H 650"/>  <path d="M 104.54545454545 50 V 350"/> <path d="M 159.09090909091 50 V 350"/> <path d="M 213.63636363636 50 V 350"/> <path d="M 268.18181818182 50 V 350"/> <path d="M 322.72727272727 50 V 350"/> <path d="M 377.27272727273 50 V 350"/> <path d="M 431.81818181818 50 V 350"/> <path d="M 486.36363636364 50 V 350"/> <path d="M 540.90909090909 50 V 350"/> <path d="M 595.45454545455 50 V 350"/> <path d="M 650 50 V 350"/> </g> <g class="graph-x"> <text x="50" y="370" text-anchor="middle">01</text> <text x="104.54545454545" y="370" text-anchor="middle">02</text> <text x="159.09090909091" y="370" text-anchor="middle">03</text> <text x="213.63636363636" y="370" text-anchor="middle">04</text> <text x="268.18181818182" y="370" text-anchor="middle">05</text> <text x="322.72727272727" y="370" text-anchor="middle">06</text> <text x="377.27272727273" y="370" text-anchor="middle">07</text> <text x="431.81818181818" y="370" text-anchor="middle">08</text> <text x="486.36363636364" y="370" text-anchor="middle">09</text> <text x="540.90909090909" y="370" text-anchor="middle">10</text> <text x="595.45454545455" y="370" text-anchor="middle">11</text> <text x="650" y="370" text-anchor="middle">12</text> </g> <g class="graph-y"> <text x="40" y="350" text-anchor="end" baseline-shift="-1ex" dominant-baseline="middle" >0</text><text x="40" y="307.35547058238" text-anchor="end" baseline-shift="-1ex" dominant-baseline="middle" >10000</text><text x="40" y="264.71094116476" text-anchor="end" baseline-shift="-1ex" dominant-baseline="middle" >20000</text><text x="40" y="222.06641174715" text-anchor="end" baseline-shift="-1ex" dominant-baseline="middle" >30000</text><text x="40" y="179.42188232953" text-anchor="end" baseline-shift="-1ex" dominant-baseline="middle" >40000</text><text x="40" y="136.77735291191" text-anchor="end" baseline-shift="-1ex" dominant-baseline="middle" >50000</text><text x="40" y="94.132823494293" text-anchor="end" baseline-shift="-1ex" dominant-baseline="middle" >60000</text></g> <path d="M 50 346.4462892152 L 104.54545454545 347.07351916872 159.09090909091 345.13141622482 213.63636363636 349.7038574346 268.18181818182 331.52070391903 322.72727272727 342.26179476609 377.27272727273 349.80749548679 431.81818181818 350 486.36363636364 350 540.90909090909 350 595.45454545455 350 650 350" class="graph-line" stroke="red" fill="#fff" fill-opacity="0"/> <g class="graph-point"> <circle cx="50" cy="346.4462892152" r="3" stroke="red" class="graph-point-active"/> <circle cx="104.54545454545" cy="347.07351916872" r="3" stroke="red" class="graph-point-active"/> <circle cx="159.09090909091" cy="345.13141622482" r="3" stroke="red" class="graph-point-active"/> <circle cx="213.63636363636" cy="349.7038574346" r="3" stroke="red" class="graph-point-active"/> <circle cx="268.18181818182" cy="331.52070391903" r="3" stroke="red" class="graph-point-active"/> <circle cx="322.72727272727" cy="342.26179476609" r="3" stroke="red" class="graph-point-active"/> <circle cx="377.27272727273" cy="349.80749548679" r="3" stroke="red" class="graph-point-active"/> <circle cx="431.81818181818" cy="350" r="3" stroke="red" class="graph-point-active"/> <circle cx="486.36363636364" cy="350" r="3" stroke="red" class="graph-point-active"/> <circle cx="540.90909090909" cy="350" r="3" stroke="red" class="graph-point-active"/> <circle cx="595.45454545455" cy="350" r="3" stroke="red" class="graph-point-active"/> <circle cx="650" cy="350" r="3" stroke="red" class="graph-point-active"/> </g> <path d="M 50 350 L 104.54545454545 329.21150265107 159.09090909091 332.80525191071 213.63636363636 260.90684184092 268.18181818182 330.14260449094 322.72727272727 92.644559031873 377.27272727273 319.16347424981 431.81818181818 321.76248063228 486.36363636364 318.55229522334 540.90909090909 316.59778390595 595.45454545455 293.08681833904 650 289.10488809688" class="graph-line" stroke="blue" fill="#fff" fill-opacity="0"/> <g class="graph-point"> <circle cx="50" cy="350" r="3" stroke="blue" class="graph-point-active"/> <circle cx="104.54545454545" cy="329.21150265107" r="3" stroke="blue" class="graph-point-active"/> <circle cx="159.09090909091" cy="332.80525191071" r="3" stroke="blue" class="graph-point-active"/> <circle cx="213.63636363636" cy="260.90684184092" r="3" stroke="blue" class="graph-point-active"/> <circle cx="268.18181818182" cy="330.14260449094" r="3" stroke="blue" class="graph-point-active"/> <circle cx="322.72727272727" cy="92.644559031873" r="3" stroke="blue" class="graph-point-active"/> <circle cx="377.27272727273" cy="319.16347424981" r="3" stroke="blue" class="graph-point-active"/> <circle cx="431.81818181818" cy="321.76248063228" r="3" stroke="blue" class="graph-point-active"/> <circle cx="486.36363636364" cy="318.55229522334" r="3" stroke="blue" class="graph-point-active"/> <circle cx="540.90909090909" cy="316.59778390595" r="3" stroke="blue" class="graph-point-active"/> <circle cx="595.45454545455" cy="293.08681833904" r="3" stroke="blue" class="graph-point-active"/> <circle cx="650" cy="289.10488809688" r="3" stroke="blue" class="graph-point-active"/> </g>  <g class="graph-legends"> <rect x="50" y="380" width="10" height="10" fill="red" class="graph-legend-stroke"/> <text x="70" y="390" text-anchor="start" class="graph-legend">chiffre d'affaire N (HT)</text> <rect x="50" y="400" width="10" height="10" fill="blue" class="graph-legend-stroke"/> <text x="70" y="410" text-anchor="start" class="graph-legend">chiffre d'affaire N-1 (HT)</text> </g> </svg>