<svg xmlns="http://www.w3.org/2000/svg" version="1.1" xml:lang="fr" xmlns:xlink="http://www.w3/org/1999/xlink" class="graph" width="100%" height="100%" viewBox="0 0 1052.6315789474 500" preserveAspectRatio="xMidYMid meet">  <defs>     <style type="text/css"><![CDATA[        .draw { width:70%;/*Adjust this value to resize svg automatically*/ margin:auto; } svg {/*width and height of svg is 100% of dimension of its parent (draw class here)*/ display: block; margin:auto; margin-bottom: 50px; } .graph-title { stroke-width:4; stroke:transparent; fill:#000033; font-size: 1.2em; } .graph-grid { stroke-width:1; stroke:#c4c4c4; } .graph-stroke { stroke-width:2; stroke:#424242; } .graph-legends {} .graph-legend {} .graph-legend-stroke {} .graph-line { stroke-linejoin:round; stroke-width:2; } .graph-fill { stroke-width:0; } .graph-bar {} .graph-point { stroke-width:1; fill:#fff; fill-opacity:1; stroke-opacity:1; } .graph-point-active:hover { stroke-width:5; transition-duration:.9s; cursor: pointer; }  title.graph-tooltip { background-color:#d6d6d6; } .graph-pie { cursor: pointer; stroke-width:1; stroke:#fff; } text { fill:#000; }      ]]></style> </defs> <rect x="50" y="50" width="1000" height="300" class="graph-stroke" fill="#ffffff" fill-opacity="1"/> <title class="graph-tooltip">Comparatif des charges réel / prévisionnel - Cumul d'une année à partir du mois en cours ou du mois selectionné</title> <text x="550" y="40" text-anchor="middle" class="graph-title">Comparatif des charges réel / prévisionnel - Cumul d'une année à partir du mois en cours ou du mois selectionné</text> <g class="graph-grid"> <path d="M 50 350 H 1050"/> <path d="M 50 322.72837402379 H 1050"/> <path d="M 50 295.45674804758 H 1050"/> <path d="M 50 268.18512207138 H 1050"/> <path d="M 50 240.91349609517 H 1050"/> <path d="M 50 213.64187011896 H 1050"/> <path d="M 50 186.37024414275 H 1050"/> <path d="M 50 159.09861816655 H 1050"/> <path d="M 50 131.82699219034 H 1050"/> <path d="M 50 104.55536621413 H 1050"/> <path d="M 50 77.283740237924 H 1050"/>  <path d="M 76.315789473684 50 V 350"/> <path d="M 102.63157894737 50 V 350"/> <path d="M 128.94736842105 50 V 350"/> <path d="M 155.26315789474 50 V 350"/> <path d="M 181.57894736842 50 V 350"/> <path d="M 207.89473684211 50 V 350"/> <path d="M 234.21052631579 50 V 350"/> <path d="M 260.52631578947 50 V 350"/> <path d="M 286.84210526316 50 V 350"/> <path d="M 313.15789473684 50 V 350"/> <path d="M 339.47368421053 50 V 350"/> <path d="M 365.78947368421 50 V 350"/> <path d="M 392.10526315789 50 V 350"/> <path d="M 418.42105263158 50 V 350"/> <path d="M 444.73684210526 50 V 350"/> <path d="M 471.05263157895 50 V 350"/> <path d="M 497.36842105263 50 V 350"/> <path d="M 523.68421052632 50 V 350"/> <path d="M 550 50 V 350"/> <path d="M 576.31578947368 50 V 350"/> <path d="M 602.63157894737 50 V 350"/> <path d="M 628.94736842105 50 V 350"/> <path d="M 655.26315789474 50 V 350"/> <path d="M 681.57894736842 50 V 350"/> <path d="M 707.89473684211 50 V 350"/> <path d="M 734.21052631579 50 V 350"/> <path d="M 760.52631578947 50 V 350"/> <path d="M 786.84210526316 50 V 350"/> <path d="M 813.15789473684 50 V 350"/> <path d="M 839.47368421053 50 V 350"/> <path d="M 865.78947368421 50 V 350"/> <path d="M 892.10526315789 50 V 350"/> <path d="M 918.42105263158 50 V 350"/> <path d="M 944.73684210526 50 V 350"/> <path d="M 971.05263157895 50 V 350"/> <path d="M 997.36842105263 50 V 350"/> <path d="M 1023.6842105263 50 V 350"/> <path d="M 1050 50 V 350"/> </g> <g class="graph-x"> <text x="50" y="370" text-anchor="middle">28</text> <text x="76.315789473684" y="370" text-anchor="middle">25</text> <text x="102.63157894737" y="370" text-anchor="middle">46</text> <text x="128.94736842105" y="370" text-anchor="middle">17</text> <text x="155.26315789474" y="370" text-anchor="middle">16</text> <text x="181.57894736842" y="370" text-anchor="middle">23</text> <text x="207.89473684211" y="370" text-anchor="middle">29</text> <text x="234.21052631579" y="370" text-anchor="middle">41</text> <text x="260.52631578947" y="370" text-anchor="middle">42</text> <text x="286.84210526316" y="370" text-anchor="middle">45</text> <text x="313.15789473684" y="370" text-anchor="middle">12</text> <text x="339.47368421053" y="370" text-anchor="middle">11</text> <text x="365.78947368421" y="370" text-anchor="middle">20</text> <text x="392.10526315789" y="370" text-anchor="middle">14</text> <text x="418.42105263158" y="370" text-anchor="middle">49</text> <text x="444.73684210526" y="370" text-anchor="middle">13</text> <text x="471.05263157895" y="370" text-anchor="middle">43</text> <text x="497.36842105263" y="370" text-anchor="middle">24</text> <text x="523.68421052632" y="370" text-anchor="middle">21</text> <text x="550" y="370" text-anchor="middle">34</text> <text x="576.31578947368" y="370" text-anchor="middle">31</text> <text x="602.63157894737" y="370" text-anchor="middle">32</text> <text x="628.94736842105" y="370" text-anchor="middle">22</text> <text x="655.26315789474" y="370" text-anchor="middle">38</text> <text x="681.57894736842" y="370" text-anchor="middle">37</text> <text x="707.89473684211" y="370" text-anchor="middle">15</text> <text x="734.21052631579" y="370" text-anchor="middle">19</text> <text x="760.52631578947" y="370" text-anchor="middle">18</text> <text x="786.84210526316" y="370" text-anchor="middle">30</text> <text x="813.15789473684" y="370" text-anchor="middle">35</text> <text x="839.47368421053" y="370" text-anchor="middle">33</text> <text x="865.78947368421" y="370" text-anchor="middle">39</text> <text x="892.10526315789" y="370" text-anchor="middle">40</text> <text x="918.42105263158" y="370" text-anchor="middle">44</text> <text x="944.73684210526" y="370" text-anchor="middle">47</text> <text x="971.05263157895" y="370" text-anchor="middle">26</text> <text x="997.36842105263" y="370" text-anchor="middle">27</text> <text x="1023.6842105263" y="370" text-anchor="middle">48</text> <text x="1050" y="370" text-anchor="middle">36</text> </g> <g class="graph-y"> <text x="40" y="350" text-anchor="end" baseline-shift="-1ex" dominant-baseline="middle" >0</text><text x="40" y="322.72837402379" text-anchor="end" baseline-shift="-1ex" dominant-baseline="middle" >2251.2</text><text x="40" y="295.45674804758" text-anchor="end" baseline-shift="-1ex" dominant-baseline="middle" >4502.4</text><text x="40" y="268.18512207138" text-anchor="end" baseline-shift="-1ex" dominant-baseline="middle" >6753.6</text><text x="40" y="240.91349609517" text-anchor="end" baseline-shift="-1ex" dominant-baseline="middle" >9004.8</text><text x="40" y="213.64187011896" text-anchor="end" baseline-shift="-1ex" dominant-baseline="middle" >11256</text><text x="40" y="186.37024414275" text-anchor="end" baseline-shift="-1ex" dominant-baseline="middle" >13507.2</text><text x="40" y="159.09861816655" text-anchor="end" baseline-shift="-1ex" dominant-baseline="middle" >15758.4</text><text x="40" y="131.82699219034" text-anchor="end" baseline-shift="-1ex" dominant-baseline="middle" >18009.6</text><text x="40" y="104.55536621413" text-anchor="end" baseline-shift="-1ex" dominant-baseline="middle" >20260.8</text><text x="40" y="77.283740237924" text-anchor="end" baseline-shift="-1ex" dominant-baseline="middle" >22512</text></g>  <rect x="50" y="299.5791101671" width="13.157894736842" height="50.420889832904" class="graph-bar" fill="red" fill-opacity="0.5"/> <rect x="63.157894736842" y="348.8051703669" width="26.315789473684" height="1.1948296330994" class="graph-bar" fill="red" fill-opacity="0.5"/> <rect x="89.473684210526" y="347.90350586734" width="26.315789473684" height="2.0964941326592" class="graph-bar" fill="red" fill-opacity="0.5"/> <rect x="115.78947368421" y="344.26280679368" width="26.315789473684" height="5.737193206322" class="graph-bar" fill="red" fill-opacity="0.5"/> <rect x="142.10526315789" y="344.01846213486" width="26.315789473684" height="5.981537865144" class="graph-bar" fill="red" fill-opacity="0.5"/> <rect x="168.42105263158" y="331.88917873382" width="26.315789473684" height="18.110821266183" class="graph-bar" fill="red" fill-opacity="0.5"/> <rect x="194.73684210526" y="346.71703507483" width="26.315789473684" height="3.2829649251742" class="graph-bar" fill="red" fill-opacity="0.5"/> <rect x="221.05263157895" y="319.60350021402" width="26.315789473684" height="30.396499785981" class="graph-bar" fill="red" fill-opacity="0.5"/> <rect x="247.36842105263" y="350" width="26.315789473684" height="1" class="graph-bar" fill="red" fill-opacity="0.5"/> <rect x="273.68421052632" y="348.24343205111" width="26.315789473684" height="1.756567948894" class="graph-bar" fill="red" fill-opacity="0.5"/> <rect x="300" y="344.95235057058" width="26.315789473684" height="5.0476494294183" class="graph-bar" fill="red" fill-opacity="0.5"/> <rect x="326.31578947368" y="320.25754920409" width="26.315789473684" height="29.742450795907" class="graph-bar" fill="red" fill-opacity="0.5"/> <rect x="352.63157894737" y="269.03941980763" width="26.315789473684" height="80.960580192374" class="graph-bar" fill="red" fill-opacity="0.5"/> <rect x="378.94736842105" y="77.282771096987" width="26.315789473684" height="272.71722890301" class="graph-bar" fill="red" fill-opacity="0.5"/> <rect x="405.26315789474" y="344.33658264753" width="26.315789473684" height="5.6634173524685" class="graph-bar" fill="red" fill-opacity="0.5"/> <rect x="431.57894736842" y="350" width="26.315789473684" height="1" class="graph-bar" fill="red" fill-opacity="0.5"/> <rect x="457.89473684211" y="345.9624377125" width="26.315789473684" height="4.0375622874957" class="graph-bar" fill="red" fill-opacity="0.5"/> <rect x="484.21052631579" y="312.23754451991" width="26.315789473684" height="37.762455480088" class="graph-bar" fill="red" fill-opacity="0.5"/> <rect x="510.52631578947" y="350" width="26.315789473684" height="1" class="graph-bar" fill="red" fill-opacity="0.5"/> <rect x="536.84210526316" y="195.48089580927" width="26.315789473684" height="154.51910419073" class="graph-bar" fill="red" fill-opacity="0.5"/> <rect x="563.15789473684" y="349.8186495021" width="26.315789473684" height="0.18135049789616" class="graph-bar" fill="red" fill-opacity="0.5"/> <rect x="589.47368421053" y="346.5883816154" width="26.315789473684" height="3.4116183846036" class="graph-bar" fill="red" fill-opacity="0.5"/> <rect x="615.78947368421" y="341.82287334136" width="26.315789473684" height="8.1771266586443" class="graph-bar" fill="red" fill-opacity="0.5"/> <rect x="642.10526315789" y="350" width="26.315789473684" height="1" class="graph-bar" fill="red" fill-opacity="0.5"/> <rect x="668.42105263158" y="339.48990881999" width="26.315789473684" height="10.51009118001" class="graph-bar" fill="red" fill-opacity="0.5"/> <rect x="694.73684210526" y="262.30280000969" width="26.315789473684" height="87.697199990309" class="graph-bar" fill="red" fill-opacity="0.5"/> <rect x="721.05263157895" y="333.59014222143" width="26.315789473684" height="16.409857778567" class="graph-bar" fill="red" fill-opacity="0.5"/> <rect x="747.36842105263" y="176.16906663652" width="26.315789473684" height="173.83093336348" class="graph-bar" fill="red" fill-opacity="0.5"/> <rect x="773.68421052632" y="346.39031343633" width="26.315789473684" height="3.6096865636685" class="graph-bar" fill="red" fill-opacity="0.5"/> <rect x="800" y="344.48898005993" width="26.315789473684" height="5.5110199400748" class="graph-bar" fill="red" fill-opacity="0.5"/> <rect x="826.31578947368" y="343.24629909305" width="26.315789473684" height="6.7537009069544" class="graph-bar" fill="red" fill-opacity="0.5"/> <rect x="852.63157894737" y="350" width="26.315789473684" height="1" class="graph-bar" fill="red" fill-opacity="0.5"/> <rect x="878.94736842105" y="350" width="26.315789473684" height="1" class="graph-bar" fill="red" fill-opacity="0.5"/> <rect x="905.26315789474" y="329.74507555261" width="26.315789473684" height="20.254924447388" class="graph-bar" fill="red" fill-opacity="0.5"/> <rect x="931.57894736842" y="317.8820636241" width="26.315789473684" height="32.117936375897" class="graph-bar" fill="red" fill-opacity="0.5"/> <rect x="957.89473684211" y="347.89781216433" width="26.315789473684" height="2.102187835666" class="graph-bar" fill="red" fill-opacity="0.5"/> <rect x="984.21052631579" y="339.50541507499" width="26.315789473684" height="10.494584925013" class="graph-bar" fill="red" fill-opacity="0.5"/> <rect x="1010.5263157895" y="299.39872881014" width="26.315789473684" height="50.601271189863" class="graph-bar" fill="red" fill-opacity="0.5"/> <rect x="1036.8421052632" y="350" width="13.157894736842" height="1" class="graph-bar" fill="red" fill-opacity="0.5"/> <rect x="50" y="299.5791101671" width="13.157894736842" height="50.420889832904" class="graph-bar" stroke="red" fill="#fff" fill-opacity="0"/> <rect x="63.157894736842" y="348.8051703669" width="26.315789473684" height="1.1948296330994" class="graph-bar" stroke="red" fill="#fff" fill-opacity="0"/> <rect x="89.473684210526" y="347.90350586734" width="26.315789473684" height="2.0964941326592" class="graph-bar" stroke="red" fill="#fff" fill-opacity="0"/> <rect x="115.78947368421" y="344.26280679368" width="26.315789473684" height="5.737193206322" class="graph-bar" stroke="red" fill="#fff" fill-opacity="0"/> <rect x="142.10526315789" y="344.01846213486" width="26.315789473684" height="5.981537865144" class="graph-bar" stroke="red" fill="#fff" fill-opacity="0"/> <rect x="168.42105263158" y="331.88917873382" width="26.315789473684" height="18.110821266183" class="graph-bar" stroke="red" fill="#fff" fill-opacity="0"/> <rect x="194.73684210526" y="346.71703507483" width="26.315789473684" height="3.2829649251742" class="graph-bar" stroke="red" fill="#fff" fill-opacity="0"/> <rect x="221.05263157895" y="319.60350021402" width="26.315789473684" height="30.396499785981" class="graph-bar" stroke="red" fill="#fff" fill-opacity="0"/> <rect x="247.36842105263" y="350" width="26.315789473684" height="1" class="graph-bar" stroke="red" fill="#fff" fill-opacity="0"/> <rect x="273.68421052632" y="348.24343205111" width="26.315789473684" height="1.756567948894" class="graph-bar" stroke="red" fill="#fff" fill-opacity="0"/> <rect x="300" y="344.95235057058" width="26.315789473684" height="5.0476494294183" class="graph-bar" stroke="red" fill="#fff" fill-opacity="0"/> <rect x="326.31578947368" y="320.25754920409" width="26.315789473684" height="29.742450795907" class="graph-bar" stroke="red" fill="#fff" fill-opacity="0"/> <rect x="352.63157894737" y="269.03941980763" width="26.315789473684" height="80.960580192374" class="graph-bar" stroke="red" fill="#fff" fill-opacity="0"/> <rect x="378.94736842105" y="77.282771096987" width="26.315789473684" height="272.71722890301" class="graph-bar" stroke="red" fill="#fff" fill-opacity="0"/> <rect x="405.26315789474" y="344.33658264753" width="26.315789473684" height="5.6634173524685" class="graph-bar" stroke="red" fill="#fff" fill-opacity="0"/> <rect x="431.57894736842" y="350" width="26.315789473684" height="1" class="graph-bar" stroke="red" fill="#fff" fill-opacity="0"/> <rect x="457.89473684211" y="345.9624377125" width="26.315789473684" height="4.0375622874957" class="graph-bar" stroke="red" fill="#fff" fill-opacity="0"/> <rect x="484.21052631579" y="312.23754451991" width="26.315789473684" height="37.762455480088" class="graph-bar" stroke="red" fill="#fff" fill-opacity="0"/> <rect x="510.52631578947" y="350" width="26.315789473684" height="1" class="graph-bar" stroke="red" fill="#fff" fill-opacity="0"/> <rect x="536.84210526316" y="195.48089580927" width="26.315789473684" height="154.51910419073" class="graph-bar" stroke="red" fill="#fff" fill-opacity="0"/> <rect x="563.15789473684" y="349.8186495021" width="26.315789473684" height="0.18135049789616" class="graph-bar" stroke="red" fill="#fff" fill-opacity="0"/> <rect x="589.47368421053" y="346.5883816154" width="26.315789473684" height="3.4116183846036" class="graph-bar" stroke="red" fill="#fff" fill-opacity="0"/> <rect x="615.78947368421" y="341.82287334136" width="26.315789473684" height="8.1771266586443" class="graph-bar" stroke="red" fill="#fff" fill-opacity="0"/> <rect x="642.10526315789" y="350" width="26.315789473684" height="1" class="graph-bar" stroke="red" fill="#fff" fill-opacity="0"/> <rect x="668.42105263158" y="339.48990881999" width="26.315789473684" height="10.51009118001" class="graph-bar" stroke="red" fill="#fff" fill-opacity="0"/> <rect x="694.73684210526" y="262.30280000969" width="26.315789473684" height="87.697199990309" class="graph-bar" stroke="red" fill="#fff" fill-opacity="0"/> <rect x="721.05263157895" y="333.59014222143" width="26.315789473684" height="16.409857778567" class="graph-bar" stroke="red" fill="#fff" fill-opacity="0"/> <rect x="747.36842105263" y="176.16906663652" width="26.315789473684" height="173.83093336348" class="graph-bar" stroke="red" fill="#fff" fill-opacity="0"/> <rect x="773.68421052632" y="346.39031343633" width="26.315789473684" height="3.6096865636685" class="graph-bar" stroke="red" fill="#fff" fill-opacity="0"/> <rect x="800" y="344.48898005993" width="26.315789473684" height="5.5110199400748" class="graph-bar" stroke="red" fill="#fff" fill-opacity="0"/> <rect x="826.31578947368" y="343.24629909305" width="26.315789473684" height="6.7537009069544" class="graph-bar" stroke="red" fill="#fff" fill-opacity="0"/> <rect x="852.63157894737" y="350" width="26.315789473684" height="1" class="graph-bar" stroke="red" fill="#fff" fill-opacity="0"/> <rect x="878.94736842105" y="350" width="26.315789473684" height="1" class="graph-bar" stroke="red" fill="#fff" fill-opacity="0"/> <rect x="905.26315789474" y="329.74507555261" width="26.315789473684" height="20.254924447388" class="graph-bar" stroke="red" fill="#fff" fill-opacity="0"/> <rect x="931.57894736842" y="317.8820636241" width="26.315789473684" height="32.117936375897" class="graph-bar" stroke="red" fill="#fff" fill-opacity="0"/> <rect x="957.89473684211" y="347.89781216433" width="26.315789473684" height="2.102187835666" class="graph-bar" stroke="red" fill="#fff" fill-opacity="0"/> <rect x="984.21052631579" y="339.50541507499" width="26.315789473684" height="10.494584925013" class="graph-bar" stroke="red" fill="#fff" fill-opacity="0"/> <rect x="1010.5263157895" y="299.39872881014" width="26.315789473684" height="50.601271189863" class="graph-bar" stroke="red" fill="#fff" fill-opacity="0"/> <rect x="1036.8421052632" y="350" width="13.157894736842" height="1" class="graph-bar" stroke="red" fill="#fff" fill-opacity="0"/> <g class="graph-point"> <circle cx="50" cy="299.5791101671" r="3" stroke="red" class="graph-point-active"/> <circle cx="76.315789473684" cy="348.8051703669" r="3" stroke="red" class="graph-point-active"/> <circle cx="102.63157894737" cy="347.90350586734" r="3" stroke="red" class="graph-point-active"/> <circle cx="128.94736842105" cy="344.26280679368" r="3" stroke="red" class="graph-point-active"/> <circle cx="155.26315789474" cy="344.01846213486" r="3" stroke="red" class="graph-point-active"/> <circle cx="181.57894736842" cy="331.88917873382" r="3" stroke="red" class="graph-point-active"/> <circle cx="207.89473684211" cy="346.71703507483" r="3" stroke="red" class="graph-point-active"/> <circle cx="234.21052631579" cy="319.60350021402" r="3" stroke="red" class="graph-point-active"/> <circle cx="260.52631578947" cy="350" r="3" stroke="red" class="graph-point-active"/> <circle cx="286.84210526316" cy="348.24343205111" r="3" stroke="red" class="graph-point-active"/> <circle cx="313.15789473684" cy="344.95235057058" r="3" stroke="red" class="graph-point-active"/> <circle cx="339.47368421053" cy="320.25754920409" r="3" stroke="red" class="graph-point-active"/> <circle cx="365.78947368421" cy="269.03941980763" r="3" stroke="red" class="graph-point-active"/> <circle cx="392.10526315789" cy="77.282771096987" r="3" stroke="red" class="graph-point-active"/> <circle cx="418.42105263158" cy="344.33658264753" r="3" stroke="red" class="graph-point-active"/> <circle cx="444.73684210526" cy="350" r="3" stroke="red" class="graph-point-active"/> <circle cx="471.05263157895" cy="345.9624377125" r="3" stroke="red" class="graph-point-active"/> <circle cx="497.36842105263" cy="312.23754451991" r="3" stroke="red" class="graph-point-active"/> <circle cx="523.68421052632" cy="350" r="3" stroke="red" class="graph-point-active"/> <circle cx="550" cy="195.48089580927" r="3" stroke="red" class="graph-point-active"/> <circle cx="576.31578947368" cy="349.8186495021" r="3" stroke="red" class="graph-point-active"/> <circle cx="602.63157894737" cy="346.5883816154" r="3" stroke="red" class="graph-point-active"/> <circle cx="628.94736842105" cy="341.82287334136" r="3" stroke="red" class="graph-point-active"/> <circle cx="655.26315789474" cy="350" r="3" stroke="red" class="graph-point-active"/> <circle cx="681.57894736842" cy="339.48990881999" r="3" stroke="red" class="graph-point-active"/> <circle cx="707.89473684211" cy="262.30280000969" r="3" stroke="red" class="graph-point-active"/> <circle cx="734.21052631579" cy="333.59014222143" r="3" stroke="red" class="graph-point-active"/> <circle cx="760.52631578947" cy="176.16906663652" r="3" stroke="red" class="graph-point-active"/> <circle cx="786.84210526316" cy="346.39031343633" r="3" stroke="red" class="graph-point-active"/> <circle cx="813.15789473684" cy="344.48898005993" r="3" stroke="red" class="graph-point-active"/> <circle cx="839.47368421053" cy="343.24629909305" r="3" stroke="red" class="graph-point-active"/> <circle cx="865.78947368421" cy="350" r="3" stroke="red" class="graph-point-active"/> <circle cx="892.10526315789" cy="350" r="3" stroke="red" class="graph-point-active"/> <circle cx="918.42105263158" cy="329.74507555261" r="3" stroke="red" class="graph-point-active"/> <circle cx="944.73684210526" cy="317.8820636241" r="3" stroke="red" class="graph-point-active"/> <circle cx="971.05263157895" cy="347.89781216433" r="3" stroke="red" class="graph-point-active"/> <circle cx="997.36842105263" cy="339.50541507499" r="3" stroke="red" class="graph-point-active"/> <circle cx="1023.6842105263" cy="299.39872881014" r="3" stroke="red" class="graph-point-active"/> <circle cx="1050" cy="350" r="3" stroke="red" class="graph-point-active"/> </g>  <rect x="50" y="349.8546288594" width="13.157894736842" height="0.14537114059812" class="graph-bar" fill="blue" fill-opacity="0.5"/> <rect x="63.157894736842" y="350" width="26.315789473684" height="1" class="graph-bar" fill="blue" fill-opacity="0.5"/> <rect x="89.473684210526" y="350" width="26.315789473684" height="1" class="graph-bar" fill="blue" fill-opacity="0.5"/> <rect x="115.78947368421" y="350" width="26.315789473684" height="1" class="graph-bar" fill="blue" fill-opacity="0.5"/> <rect x="142.10526315789" y="350" width="26.315789473684" height="1" class="graph-bar" fill="blue" fill-opacity="0.5"/> <rect x="168.42105263158" y="350" width="26.315789473684" height="1" class="graph-bar" fill="blue" fill-opacity="0.5"/> <rect x="194.73684210526" y="350" width="26.315789473684" height="1" class="graph-bar" fill="blue" fill-opacity="0.5"/> <rect x="221.05263157895" y="350" width="26.315789473684" height="1" class="graph-bar" fill="blue" fill-opacity="0.5"/> <rect x="247.36842105263" y="350" width="26.315789473684" height="1" class="graph-bar" fill="blue" fill-opacity="0.5"/> <rect x="273.68421052632" y="350" width="26.315789473684" height="1" class="graph-bar" fill="blue" fill-opacity="0.5"/> <rect x="300" y="350" width="26.315789473684" height="1" class="graph-bar" fill="blue" fill-opacity="0.5"/> <rect x="326.31578947368" y="350" width="26.315789473684" height="1" class="graph-bar" fill="blue" fill-opacity="0.5"/> <rect x="352.63157894737" y="350" width="26.315789473684" height="1" class="graph-bar" fill="blue" fill-opacity="0.5"/> <rect x="378.94736842105" y="350" width="26.315789473684" height="1" class="graph-bar" fill="blue" fill-opacity="0.5"/> <rect x="405.26315789474" y="350" width="26.315789473684" height="1" class="graph-bar" fill="blue" fill-opacity="0.5"/> <rect x="431.57894736842" y="350" width="26.315789473684" height="1" class="graph-bar" fill="blue" fill-opacity="0.5"/> <rect x="457.89473684211" y="350" width="26.315789473684" height="1" class="graph-bar" fill="blue" fill-opacity="0.5"/> <rect x="484.21052631579" y="350" width="26.315789473684" height="1" class="graph-bar" fill="blue" fill-opacity="0.5"/> <rect x="510.52631578947" y="350" width="26.315789473684" height="1" class="graph-bar" fill="blue" fill-opacity="0.5"/> <rect x="536.84210526316" y="350" width="26.315789473684" height="1" class="graph-bar" fill="blue" fill-opacity="0.5"/> <rect x="563.15789473684" y="350" width="26.315789473684" height="1" class="graph-bar" fill="blue" fill-opacity="0.5"/> <rect x="589.47368421053" y="350" width="26.315789473684" height="1" class="graph-bar" fill="blue" fill-opacity="0.5"/> <rect x="615.78947368421" y="350" width="26.315789473684" height="1" class="graph-bar" fill="blue" fill-opacity="0.5"/> <rect x="642.10526315789" y="350" width="26.315789473684" height="1" class="graph-bar" fill="blue" fill-opacity="0.5"/> <rect x="668.42105263158" y="350" width="26.315789473684" height="1" class="graph-bar" fill="blue" fill-opacity="0.5"/> <rect x="694.73684210526" y="350" width="26.315789473684" height="1" class="graph-bar" fill="blue" fill-opacity="0.5"/> <rect x="721.05263157895" y="350" width="26.315789473684" height="1" class="graph-bar" fill="blue" fill-opacity="0.5"/> <rect x="747.36842105263" y="350" width="26.315789473684" height="1" class="graph-bar" fill="blue" fill-opacity="0.5"/> <rect x="773.68421052632" y="350" width="26.315789473684" height="1" class="graph-bar" fill="blue" fill-opacity="0.5"/> <rect x="800" y="350" width="26.315789473684" height="1" class="graph-bar" fill="blue" fill-opacity="0.5"/> <rect x="826.31578947368" y="350" width="26.315789473684" height="1" class="graph-bar" fill="blue" fill-opacity="0.5"/> <rect x="852.63157894737" y="350" width="26.315789473684" height="1" class="graph-bar" fill="blue" fill-opacity="0.5"/> <rect x="878.94736842105" y="350" width="26.315789473684" height="1" class="graph-bar" fill="blue" fill-opacity="0.5"/> <rect x="905.26315789474" y="350" width="26.315789473684" height="1" class="graph-bar" fill="blue" fill-opacity="0.5"/> <rect x="931.57894736842" y="350" width="26.315789473684" height="1" class="graph-bar" fill="blue" fill-opacity="0.5"/> <rect x="957.89473684211" y="350" width="26.315789473684" height="1" class="graph-bar" fill="blue" fill-opacity="0.5"/> <rect x="984.21052631579" y="350" width="26.315789473684" height="1" class="graph-bar" fill="blue" fill-opacity="0.5"/> <rect x="1010.5263157895" y="350" width="26.315789473684" height="1" class="graph-bar" fill="blue" fill-opacity="0.5"/> <rect x="1036.8421052632" y="350" width="13.157894736842" height="1" class="graph-bar" fill="blue" fill-opacity="0.5"/> <rect x="50" y="349.8546288594" width="13.157894736842" height="0.14537114059812" class="graph-bar" stroke="blue" fill="#fff" fill-opacity="0"/> <rect x="63.157894736842" y="350" width="26.315789473684" height="1" class="graph-bar" stroke="blue" fill="#fff" fill-opacity="0"/> <rect x="89.473684210526" y="350" width="26.315789473684" height="1" class="graph-bar" stroke="blue" fill="#fff" fill-opacity="0"/> <rect x="115.78947368421" y="350" width="26.315789473684" height="1" class="graph-bar" stroke="blue" fill="#fff" fill-opacity="0"/> <rect x="142.10526315789" y="350" width="26.315789473684" height="1" class="graph-bar" stroke="blue" fill="#fff" fill-opacity="0"/> <rect x="168.42105263158" y="350" width="26.315789473684" height="1" class="graph-bar" stroke="blue" fill="#fff" fill-opacity="0"/> <rect x="194.73684210526" y="350" width="26.315789473684" height="1" class="graph-bar" stroke="blue" fill="#fff" fill-opacity="0"/> <rect x="221.05263157895" y="350" width="26.315789473684" height="1" class="graph-bar" stroke="blue" fill="#fff" fill-opacity="0"/> <rect x="247.36842105263" y="350" width="26.315789473684" height="1" class="graph-bar" stroke="blue" fill="#fff" fill-opacity="0"/> <rect x="273.68421052632" y="350" width="26.315789473684" height="1" class="graph-bar" stroke="blue" fill="#fff" fill-opacity="0"/> <rect x="300" y="350" width="26.315789473684" height="1" class="graph-bar" stroke="blue" fill="#fff" fill-opacity="0"/> <rect x="326.31578947368" y="350" width="26.315789473684" height="1" class="graph-bar" stroke="blue" fill="#fff" fill-opacity="0"/> <rect x="352.63157894737" y="350" width="26.315789473684" height="1" class="graph-bar" stroke="blue" fill="#fff" fill-opacity="0"/> <rect x="378.94736842105" y="350" width="26.315789473684" height="1" class="graph-bar" stroke="blue" fill="#fff" fill-opacity="0"/> <rect x="405.26315789474" y="350" width="26.315789473684" height="1" class="graph-bar" stroke="blue" fill="#fff" fill-opacity="0"/> <rect x="431.57894736842" y="350" width="26.315789473684" height="1" class="graph-bar" stroke="blue" fill="#fff" fill-opacity="0"/> <rect x="457.89473684211" y="350" width="26.315789473684" height="1" class="graph-bar" stroke="blue" fill="#fff" fill-opacity="0"/> <rect x="484.21052631579" y="350" width="26.315789473684" height="1" class="graph-bar" stroke="blue" fill="#fff" fill-opacity="0"/> <rect x="510.52631578947" y="350" width="26.315789473684" height="1" class="graph-bar" stroke="blue" fill="#fff" fill-opacity="0"/> <rect x="536.84210526316" y="350" width="26.315789473684" height="1" class="graph-bar" stroke="blue" fill="#fff" fill-opacity="0"/> <rect x="563.15789473684" y="350" width="26.315789473684" height="1" class="graph-bar" stroke="blue" fill="#fff" fill-opacity="0"/> <rect x="589.47368421053" y="350" width="26.315789473684" height="1" class="graph-bar" stroke="blue" fill="#fff" fill-opacity="0"/> <rect x="615.78947368421" y="350" width="26.315789473684" height="1" class="graph-bar" stroke="blue" fill="#fff" fill-opacity="0"/> <rect x="642.10526315789" y="350" width="26.315789473684" height="1" class="graph-bar" stroke="blue" fill="#fff" fill-opacity="0"/> <rect x="668.42105263158" y="350" width="26.315789473684" height="1" class="graph-bar" stroke="blue" fill="#fff" fill-opacity="0"/> <rect x="694.73684210526" y="350" width="26.315789473684" height="1" class="graph-bar" stroke="blue" fill="#fff" fill-opacity="0"/> <rect x="721.05263157895" y="350" width="26.315789473684" height="1" class="graph-bar" stroke="blue" fill="#fff" fill-opacity="0"/> <rect x="747.36842105263" y="350" width="26.315789473684" height="1" class="graph-bar" stroke="blue" fill="#fff" fill-opacity="0"/> <rect x="773.68421052632" y="350" width="26.315789473684" height="1" class="graph-bar" stroke="blue" fill="#fff" fill-opacity="0"/> <rect x="800" y="350" width="26.315789473684" height="1" class="graph-bar" stroke="blue" fill="#fff" fill-opacity="0"/> <rect x="826.31578947368" y="350" width="26.315789473684" height="1" class="graph-bar" stroke="blue" fill="#fff" fill-opacity="0"/> <rect x="852.63157894737" y="350" width="26.315789473684" height="1" class="graph-bar" stroke="blue" fill="#fff" fill-opacity="0"/> <rect x="878.94736842105" y="350" width="26.315789473684" height="1" class="graph-bar" stroke="blue" fill="#fff" fill-opacity="0"/> <rect x="905.26315789474" y="350" width="26.315789473684" height="1" class="graph-bar" stroke="blue" fill="#fff" fill-opacity="0"/> <rect x="931.57894736842" y="350" width="26.315789473684" height="1" class="graph-bar" stroke="blue" fill="#fff" fill-opacity="0"/> <rect x="957.89473684211" y="350" width="26.315789473684" height="1" class="graph-bar" stroke="blue" fill="#fff" fill-opacity="0"/> <rect x="984.21052631579" y="350" width="26.315789473684" height="1" class="graph-bar" stroke="blue" fill="#fff" fill-opacity="0"/> <rect x="1010.5263157895" y="350" width="26.315789473684" height="1" class="graph-bar" stroke="blue" fill="#fff" fill-opacity="0"/> <rect x="1036.8421052632" y="350" width="13.157894736842" height="1" class="graph-bar" stroke="blue" fill="#fff" fill-opacity="0"/> <g class="graph-point"> <circle cx="50" cy="349.8546288594" r="3" stroke="blue" class="graph-point-active"/> <circle cx="76.315789473684" cy="350" r="3" stroke="blue" class="graph-point-active"/> <circle cx="102.63157894737" cy="350" r="3" stroke="blue" class="graph-point-active"/> <circle cx="128.94736842105" cy="350" r="3" stroke="blue" class="graph-point-active"/> <circle cx="155.26315789474" cy="350" r="3" stroke="blue" class="graph-point-active"/> <circle cx="181.57894736842" cy="350" r="3" stroke="blue" class="graph-point-active"/> <circle cx="207.89473684211" cy="350" r="3" stroke="blue" class="graph-point-active"/> <circle cx="234.21052631579" cy="350" r="3" stroke="blue" class="graph-point-active"/> <circle cx="260.52631578947" cy="350" r="3" stroke="blue" class="graph-point-active"/> <circle cx="286.84210526316" cy="350" r="3" stroke="blue" class="graph-point-active"/> <circle cx="313.15789473684" cy="350" r="3" stroke="blue" class="graph-point-active"/> <circle cx="339.47368421053" cy="350" r="3" stroke="blue" class="graph-point-active"/> <circle cx="365.78947368421" cy="350" r="3" stroke="blue" class="graph-point-active"/> <circle cx="392.10526315789" cy="350" r="3" stroke="blue" class="graph-point-active"/> <circle cx="418.42105263158" cy="350" r="3" stroke="blue" class="graph-point-active"/> <circle cx="444.73684210526" cy="350" r="3" stroke="blue" class="graph-point-active"/> <circle cx="471.05263157895" cy="350" r="3" stroke="blue" class="graph-point-active"/> <circle cx="497.36842105263" cy="350" r="3" stroke="blue" class="graph-point-active"/> <circle cx="523.68421052632" cy="350" r="3" stroke="blue" class="graph-point-active"/> <circle cx="550" cy="350" r="3" stroke="blue" class="graph-point-active"/> <circle cx="576.31578947368" cy="350" r="3" stroke="blue" class="graph-point-active"/> <circle cx="602.63157894737" cy="350" r="3" stroke="blue" class="graph-point-active"/> <circle cx="628.94736842105" cy="350" r="3" stroke="blue" class="graph-point-active"/> <circle cx="655.26315789474" cy="350" r="3" stroke="blue" class="graph-point-active"/> <circle cx="681.57894736842" cy="350" r="3" stroke="blue" class="graph-point-active"/> <circle cx="707.89473684211" cy="350" r="3" stroke="blue" class="graph-point-active"/> <circle cx="734.21052631579" cy="350" r="3" stroke="blue" class="graph-point-active"/> <circle cx="760.52631578947" cy="350" r="3" stroke="blue" class="graph-point-active"/> <circle cx="786.84210526316" cy="350" r="3" stroke="blue" class="graph-point-active"/> <circle cx="813.15789473684" cy="350" r="3" stroke="blue" class="graph-point-active"/> <circle cx="839.47368421053" cy="350" r="3" stroke="blue" class="graph-point-active"/> <circle cx="865.78947368421" cy="350" r="3" stroke="blue" class="graph-point-active"/> <circle cx="892.10526315789" cy="350" r="3" stroke="blue" class="graph-point-active"/> <circle cx="918.42105263158" cy="350" r="3" stroke="blue" class="graph-point-active"/> <circle cx="944.73684210526" cy="350" r="3" stroke="blue" class="graph-point-active"/> <circle cx="971.05263157895" cy="350" r="3" stroke="blue" class="graph-point-active"/> <circle cx="997.36842105263" cy="350" r="3" stroke="blue" class="graph-point-active"/> <circle cx="1023.6842105263" cy="350" r="3" stroke="blue" class="graph-point-active"/> <circle cx="1050" cy="350" r="3" stroke="blue" class="graph-point-active"/> </g>  <g class="graph-legends"> <rect x="50" y="380" width="10" height="10" fill="red" class="graph-legend-stroke"/> <text x="70" y="390" text-anchor="start" class="graph-legend">cumul charge réel</text> <rect x="50" y="400" width="10" height="10" fill="blue" class="graph-legend-stroke"/> <text x="70" y="410" text-anchor="start" class="graph-legend">cumul charge prévisionnel</text> </g> </svg>