<svg xmlns="http://www.w3.org/2000/svg" version="1.1" xml:lang="fr" xmlns:xlink="http://www.w3/org/1999/xlink" class="graph" width="100%" height="100%" viewBox="0 0 1400 500" preserveAspectRatio="xMidYMid meet">  <defs>     <style type="text/css"><![CDATA[        .draw { width:70%;/*Adjust this value to resize svg automatically*/ margin:auto; } svg {/*width and height of svg is 100% of dimension of its parent (draw class here)*/ display: block; margin:auto; margin-bottom: 50px; } .graph-title { stroke-width:4; stroke:transparent; fill:#000033; font-size: 1.2em; } .graph-grid { stroke-width:1; stroke:#c4c4c4; } .graph-stroke { stroke-width:2; stroke:#424242; } .graph-legends {} .graph-legend {} .graph-legend-stroke {} .graph-line { stroke-linejoin:round; stroke-width:2; } .graph-fill { stroke-width:0; } .graph-bar {} .graph-point { stroke-width:1; fill:#fff; fill-opacity:1; stroke-opacity:1; } .graph-point-active:hover { stroke-width:5; transition-duration:.9s; cursor: pointer; }  title.graph-tooltip { background-color:#d6d6d6; } .graph-pie { cursor: pointer; stroke-width:1; stroke:#fff; } text { fill:#000; }      ]]></style> </defs> <rect x="50" y="50" width="1000" height="300" class="graph-stroke" fill="#ffffff" fill-opacity="1"/> <title class="graph-tooltip">Comparatif des charges réel / prévisionnel - Cumul d'une année à partir du mois en cours ou du mois selectionné</title> <text x="550" y="40" text-anchor="middle" class="graph-title">Comparatif des charges réel / prévisionnel - Cumul d'une année à partir du mois en cours ou du mois selectionné</text> <g class="graph-grid"> <path d="M 50 350 H 1050"/> <path d="M 50 322.74214659686 H 1050"/> <path d="M 50 295.48429319372 H 1050"/> <path d="M 50 268.22643979058 H 1050"/> <path d="M 50 240.96858638743 H 1050"/> <path d="M 50 213.71073298429 H 1050"/> <path d="M 50 186.45287958115 H 1050"/> <path d="M 50 159.19502617801 H 1050"/> <path d="M 50 131.93717277487 H 1050"/> <path d="M 50 104.67931937173 H 1050"/> <path d="M 50 77.421465968586 H 1050"/>  <path d="M 250 50 V 350"/> <path d="M 450 50 V 350"/> <path d="M 650 50 V 350"/> <path d="M 850 50 V 350"/> <path d="M 1050 50 V 350"/> </g> <g class="graph-x"> <text x="50" y="370" text-anchor="middle">9</text> <text x="250" y="370" text-anchor="middle">8</text> <text x="450" y="370" text-anchor="middle">10</text> <text x="650" y="370" text-anchor="middle">11</text> <text x="850" y="370" text-anchor="middle">12</text> <text x="1050" y="370" text-anchor="middle">7</text> </g> <g class="graph-y"> <text x="40" y="350" text-anchor="end" baseline-shift="-1ex" dominant-baseline="middle" >0</text><text x="40" y="322.74214659686" text-anchor="end" baseline-shift="-1ex" dominant-baseline="middle" >166.6</text><text x="40" y="295.48429319372" text-anchor="end" baseline-shift="-1ex" dominant-baseline="middle" >333.2</text><text x="40" y="268.22643979058" text-anchor="end" baseline-shift="-1ex" dominant-baseline="middle" >499.8</text><text x="40" y="240.96858638743" text-anchor="end" baseline-shift="-1ex" dominant-baseline="middle" >666.4</text><text x="40" y="213.71073298429" text-anchor="end" baseline-shift="-1ex" dominant-baseline="middle" >833</text><text x="40" y="186.45287958115" text-anchor="end" baseline-shift="-1ex" dominant-baseline="middle" >999.6</text><text x="40" y="159.19502617801" text-anchor="end" baseline-shift="-1ex" dominant-baseline="middle" >1166.2</text><text x="40" y="131.93717277487" text-anchor="end" baseline-shift="-1ex" dominant-baseline="middle" >1332.8</text><text x="40" y="104.67931937173" text-anchor="end" baseline-shift="-1ex" dominant-baseline="middle" >1499.4</text><text x="40" y="77.421465968586" text-anchor="end" baseline-shift="-1ex" dominant-baseline="middle" >1666</text></g>  <rect x="50" y="350" width="100" height="1" class="graph-bar" fill="red" fill-opacity="0.5"/> <rect x="150" y="77.311845549738" width="200" height="272.68815445026" class="graph-bar" fill="red" fill-opacity="0.5"/> <rect x="350" y="350" width="200" height="1" class="graph-bar" fill="red" fill-opacity="0.5"/> <rect x="550" y="350" width="200" height="1" class="graph-bar" fill="red" fill-opacity="0.5"/> <rect x="750" y="350" width="200" height="1" class="graph-bar" fill="red" fill-opacity="0.5"/> <rect x="950" y="186.06020942408" width="100" height="163.93979057592" class="graph-bar" fill="red" fill-opacity="0.5"/> <rect x="50" y="350" width="100" height="1" class="graph-bar" stroke="red" fill="#fff" fill-opacity="0"/> <rect x="150" y="77.311845549738" width="200" height="272.68815445026" class="graph-bar" stroke="red" fill="#fff" fill-opacity="0"/> <rect x="350" y="350" width="200" height="1" class="graph-bar" stroke="red" fill="#fff" fill-opacity="0"/> <rect x="550" y="350" width="200" height="1" class="graph-bar" stroke="red" fill="#fff" fill-opacity="0"/> <rect x="750" y="350" width="200" height="1" class="graph-bar" stroke="red" fill="#fff" fill-opacity="0"/> <rect x="950" y="186.06020942408" width="100" height="163.93979057592" class="graph-bar" stroke="red" fill="#fff" fill-opacity="0"/> <g class="graph-point"> <circle cx="50" cy="350" r="3" stroke="red" class="graph-point-active"/> <circle cx="250" cy="77.311845549738" r="3" stroke="red" class="graph-point-active"/> <circle cx="450" cy="350" r="3" stroke="red" class="graph-point-active"/> <circle cx="650" cy="350" r="3" stroke="red" class="graph-point-active"/> <circle cx="850" cy="350" r="3" stroke="red" class="graph-point-active"/> <circle cx="1050" cy="186.06020942408" r="3" stroke="red" class="graph-point-active"/> </g>  <rect x="50" y="350" width="100" height="1" class="graph-bar" fill="blue" fill-opacity="0.5"/> <rect x="150" y="350" width="200" height="1" class="graph-bar" fill="blue" fill-opacity="0.5"/> <rect x="350" y="350" width="200" height="1" class="graph-bar" fill="blue" fill-opacity="0.5"/> <rect x="550" y="350" width="200" height="1" class="graph-bar" fill="blue" fill-opacity="0.5"/> <rect x="750" y="350" width="200" height="1" class="graph-bar" fill="blue" fill-opacity="0.5"/> <rect x="950" y="350" width="100" height="1" class="graph-bar" fill="blue" fill-opacity="0.5"/> <rect x="50" y="350" width="100" height="1" class="graph-bar" stroke="blue" fill="#fff" fill-opacity="0"/> <rect x="150" y="350" width="200" height="1" class="graph-bar" stroke="blue" fill="#fff" fill-opacity="0"/> <rect x="350" y="350" width="200" height="1" class="graph-bar" stroke="blue" fill="#fff" fill-opacity="0"/> <rect x="550" y="350" width="200" height="1" class="graph-bar" stroke="blue" fill="#fff" fill-opacity="0"/> <rect x="750" y="350" width="200" height="1" class="graph-bar" stroke="blue" fill="#fff" fill-opacity="0"/> <rect x="950" y="350" width="100" height="1" class="graph-bar" stroke="blue" fill="#fff" fill-opacity="0"/> <g class="graph-point"> <circle cx="50" cy="350" r="3" stroke="blue" class="graph-point-active"/> <circle cx="250" cy="350" r="3" stroke="blue" class="graph-point-active"/> <circle cx="450" cy="350" r="3" stroke="blue" class="graph-point-active"/> <circle cx="650" cy="350" r="3" stroke="blue" class="graph-point-active"/> <circle cx="850" cy="350" r="3" stroke="blue" class="graph-point-active"/> <circle cx="1050" cy="350" r="3" stroke="blue" class="graph-point-active"/> </g>  <g class="graph-legends"> <rect x="50" y="380" width="10" height="10" fill="red" class="graph-legend-stroke"/> <text x="70" y="390" text-anchor="start" class="graph-legend">cumul charge réel</text> <rect x="50" y="400" width="10" height="10" fill="blue" class="graph-legend-stroke"/> <text x="70" y="410" text-anchor="start" class="graph-legend">cumul charge prévisionnel</text> </g> </svg>