<svg xmlns="http://www.w3.org/2000/svg" version="1.1" xml:lang="fr" xmlns:xlink="http://www.w3/org/1999/xlink" class="graph" width="100%" height="100%" viewBox="0 0 1157.8947368421 500" preserveAspectRatio="xMidYMid meet">  <defs>     <style type="text/css"><![CDATA[        .draw { width:70%;/*Adjust this value to resize svg automatically*/ margin:auto; } svg {/*width and height of svg is 100% of dimension of its parent (draw class here)*/ display: block; margin:auto; margin-bottom: 50px; } .graph-title { stroke-width:4; stroke:transparent; fill:#000033; font-size: 1.2em; } .graph-grid { stroke-width:1; stroke:#c4c4c4; } .graph-stroke { stroke-width:2; stroke:#424242; } .graph-legends {} .graph-legend {} .graph-legend-stroke {} .graph-line { stroke-linejoin:round; stroke-width:2; } .graph-fill { stroke-width:0; } .graph-bar {} .graph-point { stroke-width:1; fill:#fff; fill-opacity:1; stroke-opacity:1; } .graph-point-active:hover { stroke-width:5; transition-duration:.9s; cursor: pointer; }  title.graph-tooltip { background-color:#d6d6d6; } .graph-pie { cursor: pointer; stroke-width:1; stroke:#fff; } text { fill:#000; }      ]]></style> </defs> <rect x="50" y="50" width="1100" height="300" class="graph-stroke" fill="#ffffff" fill-opacity="1"/> <title class="graph-tooltip">Comparatif des charges réel - prévisionnel</title> <text x="600" y="40" text-anchor="middle" class="graph-title">Comparatif des charges réel - prévisionnel</text> <g class="graph-grid"> <path d="M 50 350 H 1150"/> <path d="M 50 318.12918304473 H 1150"/> <path d="M 50 286.25836608945 H 1150"/> <path d="M 50 254.38754913418 H 1150"/> <path d="M 50 222.5167321789 H 1150"/> <path d="M 50 190.64591522363 H 1150"/> <path d="M 50 158.77509826835 H 1150"/> <path d="M 50 126.90428131308 H 1150"/> <path d="M 50 95.033464357803 H 1150"/> <path d="M 50 63.162647402528 H 1150"/>  <path d="M 78.947368421053 50 V 350"/> <path d="M 107.89473684211 50 V 350"/> <path d="M 136.84210526316 50 V 350"/> <path d="M 165.78947368421 50 V 350"/> <path d="M 194.73684210526 50 V 350"/> <path d="M 223.68421052632 50 V 350"/> <path d="M 252.63157894737 50 V 350"/> <path d="M 281.57894736842 50 V 350"/> <path d="M 310.52631578947 50 V 350"/> <path d="M 339.47368421053 50 V 350"/> <path d="M 368.42105263158 50 V 350"/> <path d="M 397.36842105263 50 V 350"/> <path d="M 426.31578947368 50 V 350"/> <path d="M 455.26315789474 50 V 350"/> <path d="M 484.21052631579 50 V 350"/> <path d="M 513.15789473684 50 V 350"/> <path d="M 542.10526315789 50 V 350"/> <path d="M 571.05263157895 50 V 350"/> <path d="M 600 50 V 350"/> <path d="M 628.94736842105 50 V 350"/> <path d="M 657.89473684211 50 V 350"/> <path d="M 686.84210526316 50 V 350"/> <path d="M 715.78947368421 50 V 350"/> <path d="M 744.73684210526 50 V 350"/> <path d="M 773.68421052632 50 V 350"/> <path d="M 802.63157894737 50 V 350"/> <path d="M 831.57894736842 50 V 350"/> <path d="M 860.52631578947 50 V 350"/> <path d="M 889.47368421053 50 V 350"/> <path d="M 918.42105263158 50 V 350"/> <path d="M 947.36842105263 50 V 350"/> <path d="M 976.31578947368 50 V 350"/> <path d="M 1005.2631578947 50 V 350"/> <path d="M 1034.2105263158 50 V 350"/> <path d="M 1063.1578947368 50 V 350"/> <path d="M 1092.1052631579 50 V 350"/> <path d="M 1121.0526315789 50 V 350"/> <path d="M 1150 50 V 350"/> </g> <g class="graph-x"> <text x="50" y="370" text-anchor="middle">28</text> <text x="78.947368421053" y="370" text-anchor="middle">25</text> <text x="107.89473684211" y="370" text-anchor="middle">46</text> <text x="136.84210526316" y="370" text-anchor="middle">17</text> <text x="165.78947368421" y="370" text-anchor="middle">16</text> <text x="194.73684210526" y="370" text-anchor="middle">23</text> <text x="223.68421052632" y="370" text-anchor="middle">29</text> <text x="252.63157894737" y="370" text-anchor="middle">41</text> <text x="281.57894736842" y="370" text-anchor="middle">42</text> <text x="310.52631578947" y="370" text-anchor="middle">45</text> <text x="339.47368421053" y="370" text-anchor="middle">12</text> <text x="368.42105263158" y="370" text-anchor="middle">11</text> <text x="397.36842105263" y="370" text-anchor="middle">20</text> <text x="426.31578947368" y="370" text-anchor="middle">14</text> <text x="455.26315789474" y="370" text-anchor="middle">49</text> <text x="484.21052631579" y="370" text-anchor="middle">13</text> <text x="513.15789473684" y="370" text-anchor="middle">43</text> <text x="542.10526315789" y="370" text-anchor="middle">24</text> <text x="571.05263157895" y="370" text-anchor="middle">21</text> <text x="600" y="370" text-anchor="middle">34</text> <text x="628.94736842105" y="370" text-anchor="middle">31</text> <text x="657.89473684211" y="370" text-anchor="middle">32</text> <text x="686.84210526316" y="370" text-anchor="middle">22</text> <text x="715.78947368421" y="370" text-anchor="middle">38</text> <text x="744.73684210526" y="370" text-anchor="middle">37</text> <text x="773.68421052632" y="370" text-anchor="middle">15</text> <text x="802.63157894737" y="370" text-anchor="middle">19</text> <text x="831.57894736842" y="370" text-anchor="middle">18</text> <text x="860.52631578947" y="370" text-anchor="middle">30</text> <text x="889.47368421053" y="370" text-anchor="middle">35</text> <text x="918.42105263158" y="370" text-anchor="middle">33</text> <text x="947.36842105263" y="370" text-anchor="middle">39</text> <text x="976.31578947368" y="370" text-anchor="middle">40</text> <text x="1005.2631578947" y="370" text-anchor="middle">44</text> <text x="1034.2105263158" y="370" text-anchor="middle">47</text> <text x="1063.1578947368" y="370" text-anchor="middle">26</text> <text x="1092.1052631579" y="370" text-anchor="middle">27</text> <text x="1121.0526315789" y="370" text-anchor="middle">48</text> <text x="1150" y="370" text-anchor="middle">36</text> </g> <g class="graph-y"> <text x="40" y="350" text-anchor="end" baseline-shift="-1ex" dominant-baseline="middle" >-8246</text><text x="40" y="318.12918304473" text-anchor="end" baseline-shift="-1ex" dominant-baseline="middle" >-7246</text><text x="40" y="286.25836608945" text-anchor="end" baseline-shift="-1ex" dominant-baseline="middle" >-6246</text><text x="40" y="254.38754913418" text-anchor="end" baseline-shift="-1ex" dominant-baseline="middle" >-5246</text><text x="40" y="222.5167321789" text-anchor="end" baseline-shift="-1ex" dominant-baseline="middle" >-4246</text><text x="40" y="190.64591522363" text-anchor="end" baseline-shift="-1ex" dominant-baseline="middle" >-3246</text><text x="40" y="158.77509826835" text-anchor="end" baseline-shift="-1ex" dominant-baseline="middle" >-2246</text><text x="40" y="126.90428131308" text-anchor="end" baseline-shift="-1ex" dominant-baseline="middle" >-1246</text><text x="40" y="95.033464357803" text-anchor="end" baseline-shift="-1ex" dominant-baseline="middle" >-246</text><text x="40" y="63.162647402528" text-anchor="end" baseline-shift="-1ex" dominant-baseline="middle" >754</text></g>  <rect x="50" y="350.02103473919" width="14.473684210526" height="-262.82779135238" class="graph-bar" fill="red" fill-opacity="0.5"/> <rect x="64.473684210526" y="81.88133432487" width="28.947368421053" height="5.3119090619356" class="graph-bar" fill="red" fill-opacity="0.5"/> <rect x="50" y="350.02103473919" width="14.473684210526" height="-262.82779135238" class="graph-bar" stroke="red" fill="#fff" fill-opacity="0"/> <rect x="64.473684210526" y="81.88133432487" width="28.947368421053" height="5.3119090619356" class="graph-bar" stroke="red" fill="#fff" fill-opacity="0"/> <g class="graph-point"> <circle cx="50" cy="350.02103473919" r="3" stroke="red" class="graph-point-active"/> <circle cx="78.947368421053" cy="81.88133432487" r="3" stroke="red" class="graph-point-active"/> </g>  <rect x="50" y="87.193243386805" width="14.473684210526" height="1" class="graph-bar" fill="blue" fill-opacity="0.5"/> <rect x="64.473684210526" y="85.40847763731" width="28.947368421053" height="1.7847657494954" class="graph-bar" fill="blue" fill-opacity="0.5"/> <rect x="93.421052631579" y="87.193243386805" width="28.947368421053" height="1" class="graph-bar" fill="blue" fill-opacity="0.5"/> <rect x="122.36842105263" y="86.810793583342" width="28.947368421053" height="0.3824498034633" class="graph-bar" fill="blue" fill-opacity="0.5"/> <rect x="151.31578947368" y="87.193243386805" width="28.947368421053" height="1" class="graph-bar" fill="blue" fill-opacity="0.5"/> <rect x="180.26315789474" y="87.193243386805" width="28.947368421053" height="1" class="graph-bar" fill="blue" fill-opacity="0.5"/> <rect x="209.21052631579" y="86.5558270477" width="28.947368421053" height="0.63741633910549" class="graph-bar" fill="blue" fill-opacity="0.5"/> <rect x="238.15789473684" y="87.193243386805" width="28.947368421053" height="1" class="graph-bar" fill="blue" fill-opacity="0.5"/> <rect x="267.10526315789" y="87.193243386805" width="28.947368421053" height="1" class="graph-bar" fill="blue" fill-opacity="0.5"/> <rect x="296.05263157895" y="87.193243386805" width="28.947368421053" height="1" class="graph-bar" fill="blue" fill-opacity="0.5"/> <rect x="325" y="87.193243386805" width="28.947368421053" height="1" class="graph-bar" fill="blue" fill-opacity="0.5"/> <rect x="353.94736842105" y="87.193243386805" width="28.947368421053" height="1" class="graph-bar" fill="blue" fill-opacity="0.5"/> <rect x="382.89473684211" y="87.193243386805" width="28.947368421053" height="1" class="graph-bar" fill="blue" fill-opacity="0.5"/> <rect x="411.84210526316" y="87.193243386805" width="28.947368421053" height="1" class="graph-bar" fill="blue" fill-opacity="0.5"/> <rect x="440.78947368421" y="87.193243386805" width="28.947368421053" height="1" class="graph-bar" fill="blue" fill-opacity="0.5"/> <rect x="469.73684210526" y="87.193243386805" width="28.947368421053" height="1" class="graph-bar" fill="blue" fill-opacity="0.5"/> <rect x="498.68421052632" y="87.193243386805" width="28.947368421053" height="1" class="graph-bar" fill="blue" fill-opacity="0.5"/> <rect x="527.63157894737" y="87.193243386805" width="28.947368421053" height="1" class="graph-bar" fill="blue" fill-opacity="0.5"/> <rect x="556.57894736842" y="87.193243386805" width="28.947368421053" height="1" class="graph-bar" fill="blue" fill-opacity="0.5"/> <rect x="585.52631578947" y="87.193243386805" width="28.947368421053" height="1" class="graph-bar" fill="blue" fill-opacity="0.5"/> <rect x="614.47368421053" y="87.193243386805" width="28.947368421053" height="1" class="graph-bar" fill="blue" fill-opacity="0.5"/> <rect x="643.42105263158" y="87.193243386805" width="28.947368421053" height="1" class="graph-bar" fill="blue" fill-opacity="0.5"/> <rect x="672.36842105263" y="87.193243386805" width="28.947368421053" height="1" class="graph-bar" fill="blue" fill-opacity="0.5"/> <rect x="701.31578947368" y="87.193243386805" width="28.947368421053" height="1" class="graph-bar" fill="blue" fill-opacity="0.5"/> <rect x="730.26315789474" y="87.193243386805" width="28.947368421053" height="1" class="graph-bar" fill="blue" fill-opacity="0.5"/> <rect x="759.21052631579" y="87.193243386805" width="28.947368421053" height="1" class="graph-bar" fill="blue" fill-opacity="0.5"/> <rect x="788.15789473684" y="87.193243386805" width="28.947368421053" height="1" class="graph-bar" fill="blue" fill-opacity="0.5"/> <rect x="817.10526315789" y="86.810793583342" width="28.947368421053" height="0.3824498034633" class="graph-bar" fill="blue" fill-opacity="0.5"/> <rect x="846.05263157895" y="87.193243386805" width="28.947368421053" height="1" class="graph-bar" fill="blue" fill-opacity="0.5"/> <rect x="875" y="87.193243386805" width="28.947368421053" height="1" class="graph-bar" fill="blue" fill-opacity="0.5"/> <rect x="903.94736842105" y="82.412620843514" width="28.947368421053" height="4.7806225432912" class="graph-bar" fill="blue" fill-opacity="0.5"/> <rect x="932.89473684211" y="83.368745352173" width="28.947368421053" height="3.824498034633" class="graph-bar" fill="blue" fill-opacity="0.5"/> <rect x="961.84210526316" y="87.193243386805" width="28.947368421053" height="1" class="graph-bar" fill="blue" fill-opacity="0.5"/> <rect x="990.78947368421" y="87.193243386805" width="28.947368421053" height="1" class="graph-bar" fill="blue" fill-opacity="0.5"/> <rect x="1019.7368421053" y="87.193243386805" width="28.947368421053" height="1" class="graph-bar" fill="blue" fill-opacity="0.5"/> <rect x="1048.6842105263" y="87.193243386805" width="28.947368421053" height="1" class="graph-bar" fill="blue" fill-opacity="0.5"/> <rect x="1077.6315789474" y="87.193243386805" width="28.947368421053" height="1" class="graph-bar" fill="blue" fill-opacity="0.5"/> <rect x="1106.5789473684" y="87.193243386805" width="28.947368421053" height="1" class="graph-bar" fill="blue" fill-opacity="0.5"/> <rect x="1135.5263157895" y="87.193243386805" width="14.473684210526" height="1" class="graph-bar" fill="blue" fill-opacity="0.5"/> <rect x="50" y="87.193243386805" width="14.473684210526" height="1" class="graph-bar" stroke="blue" fill="#fff" fill-opacity="0"/> <rect x="64.473684210526" y="85.40847763731" width="28.947368421053" height="1.7847657494954" class="graph-bar" stroke="blue" fill="#fff" fill-opacity="0"/> <rect x="93.421052631579" y="87.193243386805" width="28.947368421053" height="1" class="graph-bar" stroke="blue" fill="#fff" fill-opacity="0"/> <rect x="122.36842105263" y="86.810793583342" width="28.947368421053" height="0.3824498034633" class="graph-bar" stroke="blue" fill="#fff" fill-opacity="0"/> <rect x="151.31578947368" y="87.193243386805" width="28.947368421053" height="1" class="graph-bar" stroke="blue" fill="#fff" fill-opacity="0"/> <rect x="180.26315789474" y="87.193243386805" width="28.947368421053" height="1" class="graph-bar" stroke="blue" fill="#fff" fill-opacity="0"/> <rect x="209.21052631579" y="86.5558270477" width="28.947368421053" height="0.63741633910549" class="graph-bar" stroke="blue" fill="#fff" fill-opacity="0"/> <rect x="238.15789473684" y="87.193243386805" width="28.947368421053" height="1" class="graph-bar" stroke="blue" fill="#fff" fill-opacity="0"/> <rect x="267.10526315789" y="87.193243386805" width="28.947368421053" height="1" class="graph-bar" stroke="blue" fill="#fff" fill-opacity="0"/> <rect x="296.05263157895" y="87.193243386805" width="28.947368421053" height="1" class="graph-bar" stroke="blue" fill="#fff" fill-opacity="0"/> <rect x="325" y="87.193243386805" width="28.947368421053" height="1" class="graph-bar" stroke="blue" fill="#fff" fill-opacity="0"/> <rect x="353.94736842105" y="87.193243386805" width="28.947368421053" height="1" class="graph-bar" stroke="blue" fill="#fff" fill-opacity="0"/> <rect x="382.89473684211" y="87.193243386805" width="28.947368421053" height="1" class="graph-bar" stroke="blue" fill="#fff" fill-opacity="0"/> <rect x="411.84210526316" y="87.193243386805" width="28.947368421053" height="1" class="graph-bar" stroke="blue" fill="#fff" fill-opacity="0"/> <rect x="440.78947368421" y="87.193243386805" width="28.947368421053" height="1" class="graph-bar" stroke="blue" fill="#fff" fill-opacity="0"/> <rect x="469.73684210526" y="87.193243386805" width="28.947368421053" height="1" class="graph-bar" stroke="blue" fill="#fff" fill-opacity="0"/> <rect x="498.68421052632" y="87.193243386805" width="28.947368421053" height="1" class="graph-bar" stroke="blue" fill="#fff" fill-opacity="0"/> <rect x="527.63157894737" y="87.193243386805" width="28.947368421053" height="1" class="graph-bar" stroke="blue" fill="#fff" fill-opacity="0"/> <rect x="556.57894736842" y="87.193243386805" width="28.947368421053" height="1" class="graph-bar" stroke="blue" fill="#fff" fill-opacity="0"/> <rect x="585.52631578947" y="87.193243386805" width="28.947368421053" height="1" class="graph-bar" stroke="blue" fill="#fff" fill-opacity="0"/> <rect x="614.47368421053" y="87.193243386805" width="28.947368421053" height="1" class="graph-bar" stroke="blue" fill="#fff" fill-opacity="0"/> <rect x="643.42105263158" y="87.193243386805" width="28.947368421053" height="1" class="graph-bar" stroke="blue" fill="#fff" fill-opacity="0"/> <rect x="672.36842105263" y="87.193243386805" width="28.947368421053" height="1" class="graph-bar" stroke="blue" fill="#fff" fill-opacity="0"/> <rect x="701.31578947368" y="87.193243386805" width="28.947368421053" height="1" class="graph-bar" stroke="blue" fill="#fff" fill-opacity="0"/> <rect x="730.26315789474" y="87.193243386805" width="28.947368421053" height="1" class="graph-bar" stroke="blue" fill="#fff" fill-opacity="0"/> <rect x="759.21052631579" y="87.193243386805" width="28.947368421053" height="1" class="graph-bar" stroke="blue" fill="#fff" fill-opacity="0"/> <rect x="788.15789473684" y="87.193243386805" width="28.947368421053" height="1" class="graph-bar" stroke="blue" fill="#fff" fill-opacity="0"/> <rect x="817.10526315789" y="86.810793583342" width="28.947368421053" height="0.3824498034633" class="graph-bar" stroke="blue" fill="#fff" fill-opacity="0"/> <rect x="846.05263157895" y="87.193243386805" width="28.947368421053" height="1" class="graph-bar" stroke="blue" fill="#fff" fill-opacity="0"/> <rect x="875" y="87.193243386805" width="28.947368421053" height="1" class="graph-bar" stroke="blue" fill="#fff" fill-opacity="0"/> <rect x="903.94736842105" y="82.412620843514" width="28.947368421053" height="4.7806225432912" class="graph-bar" stroke="blue" fill="#fff" fill-opacity="0"/> <rect x="932.89473684211" y="83.368745352173" width="28.947368421053" height="3.824498034633" class="graph-bar" stroke="blue" fill="#fff" fill-opacity="0"/> <rect x="961.84210526316" y="87.193243386805" width="28.947368421053" height="1" class="graph-bar" stroke="blue" fill="#fff" fill-opacity="0"/> <rect x="990.78947368421" y="87.193243386805" width="28.947368421053" height="1" class="graph-bar" stroke="blue" fill="#fff" fill-opacity="0"/> <rect x="1019.7368421053" y="87.193243386805" width="28.947368421053" height="1" class="graph-bar" stroke="blue" fill="#fff" fill-opacity="0"/> <rect x="1048.6842105263" y="87.193243386805" width="28.947368421053" height="1" class="graph-bar" stroke="blue" fill="#fff" fill-opacity="0"/> <rect x="1077.6315789474" y="87.193243386805" width="28.947368421053" height="1" class="graph-bar" stroke="blue" fill="#fff" fill-opacity="0"/> <rect x="1106.5789473684" y="87.193243386805" width="28.947368421053" height="1" class="graph-bar" stroke="blue" fill="#fff" fill-opacity="0"/> <rect x="1135.5263157895" y="87.193243386805" width="14.473684210526" height="1" class="graph-bar" stroke="blue" fill="#fff" fill-opacity="0"/> <g class="graph-point"> <circle cx="50" cy="87.193243386805" r="3" stroke="blue" class="graph-point-active"/> <circle cx="78.947368421053" cy="85.40847763731" r="3" stroke="blue" class="graph-point-active"/> <circle cx="107.89473684211" cy="87.193243386805" r="3" stroke="blue" class="graph-point-active"/> <circle cx="136.84210526316" cy="86.810793583342" r="3" stroke="blue" class="graph-point-active"/> <circle cx="165.78947368421" cy="87.193243386805" r="3" stroke="blue" class="graph-point-active"/> <circle cx="194.73684210526" cy="87.193243386805" r="3" stroke="blue" class="graph-point-active"/> <circle cx="223.68421052632" cy="86.5558270477" r="3" stroke="blue" class="graph-point-active"/> <circle cx="252.63157894737" cy="87.193243386805" r="3" stroke="blue" class="graph-point-active"/> <circle cx="281.57894736842" cy="87.193243386805" r="3" stroke="blue" class="graph-point-active"/> <circle cx="310.52631578947" cy="87.193243386805" r="3" stroke="blue" class="graph-point-active"/> <circle cx="339.47368421053" cy="87.193243386805" r="3" stroke="blue" class="graph-point-active"/> <circle cx="368.42105263158" cy="87.193243386805" r="3" stroke="blue" class="graph-point-active"/> <circle cx="397.36842105263" cy="87.193243386805" r="3" stroke="blue" class="graph-point-active"/> <circle cx="426.31578947368" cy="87.193243386805" r="3" stroke="blue" class="graph-point-active"/> <circle cx="455.26315789474" cy="87.193243386805" r="3" stroke="blue" class="graph-point-active"/> <circle cx="484.21052631579" cy="87.193243386805" r="3" stroke="blue" class="graph-point-active"/> <circle cx="513.15789473684" cy="87.193243386805" r="3" stroke="blue" class="graph-point-active"/> <circle cx="542.10526315789" cy="87.193243386805" r="3" stroke="blue" class="graph-point-active"/> <circle cx="571.05263157895" cy="87.193243386805" r="3" stroke="blue" class="graph-point-active"/> <circle cx="600" cy="87.193243386805" r="3" stroke="blue" class="graph-point-active"/> <circle cx="628.94736842105" cy="87.193243386805" r="3" stroke="blue" class="graph-point-active"/> <circle cx="657.89473684211" cy="87.193243386805" r="3" stroke="blue" class="graph-point-active"/> <circle cx="686.84210526316" cy="87.193243386805" r="3" stroke="blue" class="graph-point-active"/> <circle cx="715.78947368421" cy="87.193243386805" r="3" stroke="blue" class="graph-point-active"/> <circle cx="744.73684210526" cy="87.193243386805" r="3" stroke="blue" class="graph-point-active"/> <circle cx="773.68421052632" cy="87.193243386805" r="3" stroke="blue" class="graph-point-active"/> <circle cx="802.63157894737" cy="87.193243386805" r="3" stroke="blue" class="graph-point-active"/> <circle cx="831.57894736842" cy="86.810793583342" r="3" stroke="blue" class="graph-point-active"/> <circle cx="860.52631578947" cy="87.193243386805" r="3" stroke="blue" class="graph-point-active"/> <circle cx="889.47368421053" cy="87.193243386805" r="3" stroke="blue" class="graph-point-active"/> <circle cx="918.42105263158" cy="82.412620843514" r="3" stroke="blue" class="graph-point-active"/> <circle cx="947.36842105263" cy="83.368745352173" r="3" stroke="blue" class="graph-point-active"/> <circle cx="976.31578947368" cy="87.193243386805" r="3" stroke="blue" class="graph-point-active"/> <circle cx="1005.2631578947" cy="87.193243386805" r="3" stroke="blue" class="graph-point-active"/> <circle cx="1034.2105263158" cy="87.193243386805" r="3" stroke="blue" class="graph-point-active"/> <circle cx="1063.1578947368" cy="87.193243386805" r="3" stroke="blue" class="graph-point-active"/> <circle cx="1092.1052631579" cy="87.193243386805" r="3" stroke="blue" class="graph-point-active"/> <circle cx="1121.0526315789" cy="87.193243386805" r="3" stroke="blue" class="graph-point-active"/> <circle cx="1150" cy="87.193243386805" r="3" stroke="blue" class="graph-point-active"/> </g>  <g class="graph-legends"> <rect x="50" y="380" width="10" height="10" fill="red" class="graph-legend-stroke"/> <text x="70" y="390" text-anchor="start" class="graph-legend">cumul charge réel</text> <rect x="50" y="400" width="10" height="10" fill="blue" class="graph-legend-stroke"/> <text x="70" y="410" text-anchor="start" class="graph-legend">cumul charge prévisionnel</text> </g> </svg>